<mxfile host="app.diagrams.net" agent="Mozilla/5.0 (Windows NT 10.0; Win64; x64) AppleWebKit/537.36 (KHTML, like Gecko) Chrome/129.0.0.0 Safari/537.36" version="24.7.17" pages="5">
  <diagram name="Halaman-1" id="r3u8c4yGb2pfV6__GYZj">
    <mxGraphModel dx="880" dy="460" grid="1" gridSize="10" guides="1" tooltips="1" connect="1" arrows="1" fold="1" page="1" pageScale="1" pageWidth="827" pageHeight="1169" math="0" shadow="0">
      <root>
        <mxCell id="0" />
        <mxCell id="1" parent="0" />
        <mxCell id="UEyL4Gg_MiipjNMZBK4E-1" value="START" style="ellipse;whiteSpace=wrap;html=1;" vertex="1" parent="1">
          <mxGeometry x="390" y="50" width="120" height="80" as="geometry" />
        </mxCell>
        <mxCell id="UEyL4Gg_MiipjNMZBK4E-2" value="" style="endArrow=classic;html=1;rounded=0;" edge="1" parent="1">
          <mxGeometry width="50" height="50" relative="1" as="geometry">
            <mxPoint x="449.5" y="130" as="sourcePoint" />
            <mxPoint x="450" y="160" as="targetPoint" />
          </mxGeometry>
        </mxCell>
        <mxCell id="UEyL4Gg_MiipjNMZBK4E-3" value="Pilih Nilai terhadap Analog Potensio" style="shape=parallelogram;perimeter=parallelogramPerimeter;whiteSpace=wrap;html=1;fixedSize=1;" vertex="1" parent="1">
          <mxGeometry x="365" y="160" width="170" height="80" as="geometry" />
        </mxCell>
        <mxCell id="UEyL4Gg_MiipjNMZBK4E-4" value="" style="endArrow=classic;html=1;rounded=0;" edge="1" parent="1">
          <mxGeometry width="50" height="50" relative="1" as="geometry">
            <mxPoint x="413" y="240" as="sourcePoint" />
            <mxPoint x="413.5" y="270" as="targetPoint" />
          </mxGeometry>
        </mxCell>
        <mxCell id="UEyL4Gg_MiipjNMZBK4E-5" value="" style="endArrow=classic;html=1;rounded=0;" edge="1" parent="1">
          <mxGeometry width="50" height="50" relative="1" as="geometry">
            <mxPoint x="460" y="270" as="sourcePoint" />
            <mxPoint x="460" y="240" as="targetPoint" />
          </mxGeometry>
        </mxCell>
        <mxCell id="UEyL4Gg_MiipjNMZBK4E-6" value="Menampilkan nilai Analog Potensio" style="shape=parallelogram;perimeter=parallelogramPerimeter;whiteSpace=wrap;html=1;fixedSize=1;" vertex="1" parent="1">
          <mxGeometry x="350" y="270" width="170" height="70" as="geometry" />
        </mxCell>
      </root>
    </mxGraphModel>
  </diagram>
  <diagram id="OBPb_DZoiKvPPz3rzSAQ" name="Halaman-2">
    <mxGraphModel dx="880" dy="460" grid="1" gridSize="10" guides="1" tooltips="1" connect="1" arrows="1" fold="1" page="1" pageScale="1" pageWidth="827" pageHeight="1169" math="0" shadow="0">
      <root>
        <mxCell id="0" />
        <mxCell id="1" parent="0" />
        <mxCell id="aX4DBdhMvd2kej7AzUnd-1" value="START" style="ellipse;whiteSpace=wrap;html=1;" vertex="1" parent="1">
          <mxGeometry x="370" y="30" width="120" height="80" as="geometry" />
        </mxCell>
        <mxCell id="aX4DBdhMvd2kej7AzUnd-2" value="" style="endArrow=classic;html=1;rounded=0;" edge="1" parent="1">
          <mxGeometry width="50" height="50" relative="1" as="geometry">
            <mxPoint x="429.5" y="110" as="sourcePoint" />
            <mxPoint x="429.5" y="150" as="targetPoint" />
          </mxGeometry>
        </mxCell>
        <mxCell id="aX4DBdhMvd2kej7AzUnd-3" value="Pilih Nilai terhadap Analog Potensio (0-1240)" style="shape=parallelogram;perimeter=parallelogramPerimeter;whiteSpace=wrap;html=1;fixedSize=1;" vertex="1" parent="1">
          <mxGeometry x="335" y="150" width="190" height="80" as="geometry" />
        </mxCell>
        <mxCell id="aX4DBdhMvd2kej7AzUnd-4" value="Mengubah Nilai Analog menjadi nilai PWM (tegangan) (0-255)" style="rounded=0;whiteSpace=wrap;html=1;" vertex="1" parent="1">
          <mxGeometry x="342.5" y="260" width="175" height="90" as="geometry" />
        </mxCell>
        <mxCell id="aX4DBdhMvd2kej7AzUnd-5" value="" style="endArrow=classic;html=1;rounded=0;" edge="1" parent="1">
          <mxGeometry width="50" height="50" relative="1" as="geometry">
            <mxPoint x="429.5" y="230" as="sourcePoint" />
            <mxPoint x="429.5" y="260" as="targetPoint" />
          </mxGeometry>
        </mxCell>
        <mxCell id="aX4DBdhMvd2kej7AzUnd-6" value="" style="endArrow=classic;html=1;rounded=0;" edge="1" parent="1">
          <mxGeometry width="50" height="50" relative="1" as="geometry">
            <mxPoint x="429.5" y="350" as="sourcePoint" />
            <mxPoint x="429.5" y="380" as="targetPoint" />
          </mxGeometry>
        </mxCell>
        <mxCell id="aX4DBdhMvd2kej7AzUnd-7" value="Menampilkan nilai Voltage Potensio" style="shape=parallelogram;perimeter=parallelogramPerimeter;whiteSpace=wrap;html=1;fixedSize=1;" vertex="1" parent="1">
          <mxGeometry x="340" y="380" width="180" height="80" as="geometry" />
        </mxCell>
        <mxCell id="aX4DBdhMvd2kej7AzUnd-8" value="" style="endArrow=none;html=1;rounded=0;" edge="1" parent="1">
          <mxGeometry width="50" height="50" relative="1" as="geometry">
            <mxPoint x="610" y="420" as="sourcePoint" />
            <mxPoint x="510" y="420" as="targetPoint" />
          </mxGeometry>
        </mxCell>
        <mxCell id="aX4DBdhMvd2kej7AzUnd-9" value="" style="endArrow=none;html=1;rounded=0;" edge="1" parent="1">
          <mxGeometry width="50" height="50" relative="1" as="geometry">
            <mxPoint x="610" y="420" as="sourcePoint" />
            <mxPoint x="610" y="180" as="targetPoint" />
          </mxGeometry>
        </mxCell>
        <mxCell id="aX4DBdhMvd2kej7AzUnd-10" value="" style="endArrow=classic;html=1;rounded=0;entryX=0.963;entryY=0.375;entryDx=0;entryDy=0;entryPerimeter=0;" edge="1" parent="1" target="aX4DBdhMvd2kej7AzUnd-3">
          <mxGeometry width="50" height="50" relative="1" as="geometry">
            <mxPoint x="610" y="180" as="sourcePoint" />
            <mxPoint x="540" y="180" as="targetPoint" />
          </mxGeometry>
        </mxCell>
      </root>
    </mxGraphModel>
  </diagram>
  <diagram id="MUNKX1h9-XPR3SOiYDnX" name="Halaman-3">
    <mxGraphModel dx="880" dy="460" grid="1" gridSize="10" guides="1" tooltips="1" connect="1" arrows="1" fold="1" page="1" pageScale="1" pageWidth="827" pageHeight="1169" math="0" shadow="0">
      <root>
        <mxCell id="0" />
        <mxCell id="1" parent="0" />
        <mxCell id="Ezyma6bEzif2RZ3cMUDB-1" value="START" style="ellipse;whiteSpace=wrap;html=1;" vertex="1" parent="1">
          <mxGeometry x="370" y="30" width="120" height="80" as="geometry" />
        </mxCell>
        <mxCell id="Ezyma6bEzif2RZ3cMUDB-2" value="" style="endArrow=classic;html=1;rounded=0;" edge="1" parent="1">
          <mxGeometry width="50" height="50" relative="1" as="geometry">
            <mxPoint x="429.5" y="110" as="sourcePoint" />
            <mxPoint x="429.5" y="150" as="targetPoint" />
          </mxGeometry>
        </mxCell>
        <mxCell id="Ezyma6bEzif2RZ3cMUDB-3" value="Pilih Nilai terhadap Analog Potensio (0-10240)" style="shape=parallelogram;perimeter=parallelogramPerimeter;whiteSpace=wrap;html=1;fixedSize=1;" vertex="1" parent="1">
          <mxGeometry x="335" y="150" width="190" height="80" as="geometry" />
        </mxCell>
        <mxCell id="Ezyma6bEzif2RZ3cMUDB-4" value="Mengubah nilai Analog menjadi nilai sudut (tegangan) (0-255)" style="rounded=0;whiteSpace=wrap;html=1;" vertex="1" parent="1">
          <mxGeometry x="342.5" y="260" width="175" height="90" as="geometry" />
        </mxCell>
        <mxCell id="Ezyma6bEzif2RZ3cMUDB-5" value="" style="endArrow=classic;html=1;rounded=0;" edge="1" parent="1">
          <mxGeometry width="50" height="50" relative="1" as="geometry">
            <mxPoint x="429.5" y="230" as="sourcePoint" />
            <mxPoint x="429.5" y="260" as="targetPoint" />
          </mxGeometry>
        </mxCell>
        <mxCell id="Ezyma6bEzif2RZ3cMUDB-6" value="" style="endArrow=classic;html=1;rounded=0;" edge="1" parent="1">
          <mxGeometry width="50" height="50" relative="1" as="geometry">
            <mxPoint x="429.5" y="350" as="sourcePoint" />
            <mxPoint x="429.5" y="380" as="targetPoint" />
          </mxGeometry>
        </mxCell>
        <mxCell id="Ezyma6bEzif2RZ3cMUDB-7" value="Menampilkan nilai sudut kepada servo" style="shape=parallelogram;perimeter=parallelogramPerimeter;whiteSpace=wrap;html=1;fixedSize=1;" vertex="1" parent="1">
          <mxGeometry x="320" y="380" width="200" height="80" as="geometry" />
        </mxCell>
        <mxCell id="Ezyma6bEzif2RZ3cMUDB-8" value="" style="endArrow=none;html=1;rounded=0;" edge="1" parent="1">
          <mxGeometry width="50" height="50" relative="1" as="geometry">
            <mxPoint x="610" y="420" as="sourcePoint" />
            <mxPoint x="510" y="420" as="targetPoint" />
          </mxGeometry>
        </mxCell>
        <mxCell id="Ezyma6bEzif2RZ3cMUDB-9" value="" style="endArrow=none;html=1;rounded=0;" edge="1" parent="1">
          <mxGeometry width="50" height="50" relative="1" as="geometry">
            <mxPoint x="610" y="420" as="sourcePoint" />
            <mxPoint x="610" y="180" as="targetPoint" />
          </mxGeometry>
        </mxCell>
        <mxCell id="Ezyma6bEzif2RZ3cMUDB-10" value="" style="endArrow=classic;html=1;rounded=0;entryX=0.963;entryY=0.375;entryDx=0;entryDy=0;entryPerimeter=0;" edge="1" parent="1" target="Ezyma6bEzif2RZ3cMUDB-3">
          <mxGeometry width="50" height="50" relative="1" as="geometry">
            <mxPoint x="610" y="180" as="sourcePoint" />
            <mxPoint x="540" y="180" as="targetPoint" />
          </mxGeometry>
        </mxCell>
      </root>
    </mxGraphModel>
  </diagram>
  <diagram id="bUsEM7F91cnEJKLlBWp1" name="Halaman-4">
    <mxGraphModel dx="880" dy="460" grid="1" gridSize="10" guides="1" tooltips="1" connect="1" arrows="1" fold="1" page="1" pageScale="1" pageWidth="827" pageHeight="1169" math="0" shadow="0">
      <root>
        <mxCell id="0" />
        <mxCell id="1" parent="0" />
        <mxCell id="actFHfk4vBf6mpQRIgJJ-1" value="START" style="ellipse;whiteSpace=wrap;html=1;" vertex="1" parent="1">
          <mxGeometry x="390" y="50" width="120" height="80" as="geometry" />
        </mxCell>
        <mxCell id="actFHfk4vBf6mpQRIgJJ-2" value="" style="endArrow=classic;html=1;rounded=0;" edge="1" parent="1">
          <mxGeometry width="50" height="50" relative="1" as="geometry">
            <mxPoint x="449.5" y="130" as="sourcePoint" />
            <mxPoint x="450" y="160" as="targetPoint" />
          </mxGeometry>
        </mxCell>
        <mxCell id="actFHfk4vBf6mpQRIgJJ-3" value="Pilih Nilai Voltage tehadap Potensio&amp;nbsp;" style="shape=parallelogram;perimeter=parallelogramPerimeter;whiteSpace=wrap;html=1;fixedSize=1;" vertex="1" parent="1">
          <mxGeometry x="365" y="160" width="170" height="80" as="geometry" />
        </mxCell>
        <mxCell id="actFHfk4vBf6mpQRIgJJ-4" value="" style="endArrow=classic;html=1;rounded=0;" edge="1" parent="1">
          <mxGeometry width="50" height="50" relative="1" as="geometry">
            <mxPoint x="413" y="240" as="sourcePoint" />
            <mxPoint x="413.5" y="270" as="targetPoint" />
          </mxGeometry>
        </mxCell>
        <mxCell id="actFHfk4vBf6mpQRIgJJ-5" value="" style="endArrow=classic;html=1;rounded=0;" edge="1" parent="1">
          <mxGeometry width="50" height="50" relative="1" as="geometry">
            <mxPoint x="460" y="270" as="sourcePoint" />
            <mxPoint x="460" y="240" as="targetPoint" />
          </mxGeometry>
        </mxCell>
        <mxCell id="actFHfk4vBf6mpQRIgJJ-6" value="Menampilkan nilai Analog Potensio" style="shape=parallelogram;perimeter=parallelogramPerimeter;whiteSpace=wrap;html=1;fixedSize=1;" vertex="1" parent="1">
          <mxGeometry x="350" y="270" width="170" height="70" as="geometry" />
        </mxCell>
      </root>
    </mxGraphModel>
  </diagram>
  <diagram id="isfhTvQjJLJjP-2swigY" name="Halaman-5">
    <mxGraphModel dx="880" dy="460" grid="1" gridSize="10" guides="1" tooltips="1" connect="1" arrows="1" fold="1" page="1" pageScale="1" pageWidth="827" pageHeight="1169" math="0" shadow="0">
      <root>
        <mxCell id="0" />
        <mxCell id="1" parent="0" />
      </root>
    </mxGraphModel>
  </diagram>
</mxfile>
